<?xml version="1.0" encoding="UTF-8"?>
<!-- Created with Inkscape (http://www.inkscape.org/) -->
<svg width="10.16mm" height="10.16mm" version="1.1" viewBox="0 0 10.16 10.16" xmlns="http://www.w3.org/2000/svg">
 <g id="dip-8-narrow">
  <path transform="scale(.26458)" d="m0 0v14.275a4.8 4.8 0 0 1 4.8008 4.7988 4.8 4.8 0 0 1-4.8008 4.8008v14.525h38.4v-38.4zm10.961 13.605h16.479v11.188h-16.479z" stroke-width="3.7795"/>
  <path d="m8.37 6.985h1.04v2.54h-1.04zm-2.54 0h1.04v2.54h-1.04zm-2.54 0h1.04v2.54h-1.04zm-2.54 0h1.04v2.54h-1.04zm7.62-6.35h1.04v2.54h-1.04zm-2.54 0h1.04v2.54h-1.04zm-2.54 0h1.04v2.54h-1.04zm-2.54 0h1.04v2.54h-1.04z" fill="#fff"/>
 </g>
</svg>
