<?xml version="1.0" encoding="UTF-8"?>
<!-- Created with Inkscape (http://www.inkscape.org/) -->
<svg width="40.639mm" height="17.78mm" version="1.1" viewBox="0 0 32.671 17.78" xmlns="http://www.w3.org/2000/svg">
 <g id="dip-32-socket" transform="translate(1.0157)">
  <path d="m-5 0v7.6202a1.27 1.27 0 0 1 1.2697 1.2697 1.27 1.27 0 0 1-1.2697 1.2702v7.6196h40.639v-17.78zm2.8995 3.5996h15.97v10.5h-15.97zm18.87 0h15.97v10.5h-15.97z" stroke-width=".99998"/>
  <path d="m33.85 14.605h1.04v2.54h-1.04zm-2.54 0h1.04v2.54h-1.04zm-2.54 0h1.04v2.54h-1.04zm-2.54 0h1.04v2.54h-1.04zm-2.54 0h1.04v2.54h-1.04zm-2.54 0h1.04v2.54h-1.04zm-2.54 0h1.04v2.54h-1.04zm-2.54 0h1.04v2.54h-1.04zm-2.54 0h1.04v2.54h-1.04zm-2.54 0h1.04v2.54h-1.04zm-2.54 0h1.04v2.54h-1.04zm-2.54 0h1.04v2.54h-1.04zm-2.54 0h1.04v2.54h-1.04zm-2.54 0h1.04v2.54h-1.04zm-2.54 0h1.04v2.54h-1.04zm-2.54 0h1.04v2.54h-1.04zm38.1-13.97h1.04v2.54h-1.04zm-2.54 0h1.04v2.54h-1.04zm-2.54 0h1.04v2.54h-1.04zm-2.54 0h1.04v2.54h-1.04zm-2.54 0h1.04v2.54h-1.04zm-2.54 0h1.04v2.54h-1.04zm-2.54 0h1.04v2.54h-1.04zm-2.54 0h1.04v2.54h-1.04zm-2.54 0h1.04v2.54h-1.04zm-2.54 0h1.04v2.54h-1.04zm-2.54 0h1.04v2.54h-1.04zm-2.54 0h1.04v2.54h-1.04zm-2.54 0h1.04v2.54h-1.04zm-2.54 0h1.04v2.54h-1.04zm-2.54 0h1.04v2.54h-1.04zm-2.54 0h1.04v2.54h-1.04z" fill="#fff"/>
 </g>
</svg>
