<?xml version="1.0" encoding="UTF-8" standalone="no"?>
<!-- Created with Inkscape (http://www.inkscape.org/) -->

<svg
   width="51mm"
   height="18mm"
   version="1.1"
   viewBox="0 0 51 18"
   id="svg5"
   sodipodi:docname="test3.svg"
   inkscape:version="1.1 (c68e22c387, 2021-05-23)"
   xmlns:inkscape="http://www.inkscape.org/namespaces/inkscape"
   xmlns:sodipodi="http://sodipodi.sourceforge.net/DTD/sodipodi-0.dtd"
   xmlns="http://www.w3.org/2000/svg"
   xmlns:svg="http://www.w3.org/2000/svg">
  <defs
     id="defs9" />
  <sodipodi:namedview
     id="namedview7"
     pagecolor="#ffffff"
     bordercolor="#666666"
     borderopacity="1.0"
     inkscape:pageshadow="2"
     inkscape:pageopacity="0.0"
     inkscape:pagecheckerboard="0"
     inkscape:document-units="mm"
     showgrid="false"
     inkscape:zoom="0.70710678"
     inkscape:cx="614.47579"
     inkscape:cy="442.64885"
     inkscape:window-width="1920"
     inkscape:window-height="1127"
     inkscape:window-x="0"
     inkscape:window-y="0"
     inkscape:window-maximized="1"
     inkscape:current-layer="svg5" />
  <g id="dip-28">
    <rect x="0" y="0" width="50.8" height="17.78"/>
    <rect x="2.9" y="3.6" width="21.05" height="10.5" fill="#fff"/>
    <rect x="26.85" y="3.6" width="21.05" height="10.5" fill="#fff"/>
     
    <rect x="0.75" y="0.635" width="1.04" height="2.54" fill="#fff"/>
    <rect x="3.29" y="0.635" width="1.04" height="2.54" fill="#fff"/>
    <rect x="5.83" y="0.635" width="1.04" height="2.54" fill="#fff"/>
    <rect x="8.37" y="0.635" width="1.04" height="2.54" fill="#fff"/>
    <rect x="10.91" y="0.635" width="1.04" height="2.54" fill="#fff"/>
    <rect x="13.45" y="0.635" width="1.04" height="2.54" fill="#fff"/>
    <rect x="15.99" y="0.635" width="1.04" height="2.54" fill="#fff"/>
    <rect x="18.53" y="0.635" width="1.04" height="2.54" fill="#fff"/>
    <rect x="21.07" y="0.635" width="1.04" height="2.54" fill="#fff"/>
    <rect x="23.61" y="0.635" width="1.04" height="2.54" fill="#fff"/>
    <rect x="26.15" y="0.635" width="1.04" height="2.54" fill="#fff"/>
    <rect x="28.69" y="0.635" width="1.04" height="2.54" fill="#fff"/>
    <rect x="31.23" y="0.635" width="1.04" height="2.54" fill="#fff"/>
    <rect x="33.77" y="0.635" width="1.04" height="2.54" fill="#fff"/>
    <rect x="36.31" y="0.635" width="1.04" height="2.54" fill="#fff"/>
    <rect x="38.85" y="0.635" width="1.04" height="2.54" fill="#fff"/>
    <rect x="41.39" y="0.635" width="1.04" height="2.54" fill="#fff"/>
    <rect x="43.93" y="0.635" width="1.04" height="2.54" fill="#fff"/>
    <rect x="46.47" y="0.635" width="1.04" height="2.54" fill="#fff"/>
    <rect x="49.01" y="0.635" width="1.04" height="2.54" fill="#fff"/>

    
    
    <rect x="0.75" y="14.605" width="1.04" height="2.54" fill="#fff"/>
    <rect x="3.29" y="14.605" width="1.04" height="2.54" fill="#fff"/>
    <rect x="5.83" y="14.605" width="1.04" height="2.54" fill="#fff"/>
    <rect x="8.37" y="14.605" width="1.04" height="2.54" fill="#fff"/>
    <rect x="10.91" y="14.605" width="1.04" height="2.54" fill="#fff"/>
    <rect x="13.45" y="14.605" width="1.04" height="2.54" fill="#fff"/>
    <rect x="15.99" y="14.605" width="1.04" height="2.54" fill="#fff"/>
    <rect x="18.53" y="14.605" width="1.04" height="2.54" fill="#fff"/>
    <rect x="21.07" y="14.605" width="1.04" height="2.54" fill="#fff"/>
    <rect x="23.61" y="14.605" width="1.04" height="2.54" fill="#fff"/>
    <rect x="26.15" y="14.605" width="1.04" height="2.54" fill="#fff"/>
    <rect x="28.69" y="14.605" width="1.04" height="2.54" fill="#fff"/>
    <rect x="31.23" y="14.605" width="1.04" height="2.54" fill="#fff"/>
    <rect x="33.77" y="14.605" width="1.04" height="2.54" fill="#fff"/>
    <rect x="36.31" y="14.605" width="1.04" height="2.54" fill="#fff"/>
    <rect x="38.85" y="14.605" width="1.04" height="2.54" fill="#fff"/>
    <rect x="41.39" y="14.605" width="1.04" height="2.54" fill="#fff"/>
    <rect x="43.93" y="14.605" width="1.04" height="2.54" fill="#fff"/>
    <rect x="46.47" y="14.605" width="1.04" height="2.54" fill="#fff"/>
    <rect x="49.01" y="14.605" width="1.04" height="2.54" fill="#fff"/>

    <circle
       cx="0"
       cy="8.89"
       r="1.27"
       fill="#ffffff"/>

  </g>
</svg>
