<?xml version="1.0" encoding="UTF-8"?>
<!-- Created with Inkscape (http://www.inkscape.org/) -->
<svg width="20.32mm" height="10.16mm" version="1.1" viewBox="0 0 20.32 10.16" xmlns="http://www.w3.org/2000/svg">
 <g id="dip-16-narrow">
  <path transform="scale(.26458)" d="m0 0v14.4a4.8 4.8 0 0 1 4.8008 4.7988 4.8 4.8 0 0 1-4.8008 4.8008v14.4h76.801v-38.4zm10.961 13.605h54.879v11.188h-54.879z" stroke-width="3.7795"/>
  <path d="m18.53 6.985h1.04v2.54h-1.04zm-2.54 0h1.04v2.54h-1.04zm-2.54 0h1.04v2.54h-1.04zm-2.54 0h1.04v2.54h-1.04zm-2.54 0h1.04v2.54h-1.04zm-2.54 0h1.04v2.54h-1.04zm-2.54 0h1.04v2.54h-1.04zm-2.54 0h1.04v2.54h-1.04zm17.78-6.35h1.04v2.54h-1.04zm-2.54 0h1.04v2.54h-1.04zm-2.54 0h1.04v2.54h-1.04zm-2.54 0h1.04v2.54h-1.04zm-2.54 0h1.04v2.54h-1.04zm-2.54 0h1.04v2.54h-1.04zm-2.54 0h1.04v2.54h-1.04zm-2.54 0h1.04v2.54h-1.04z" fill="#fff"/>
 </g>
</svg>
