<?xml version="1.0" encoding="UTF-8"?>
<!-- Created with Inkscape (http://www.inkscape.org/) -->
<svg width="40.64mm" height="10.16mm" version="1.1" viewBox="0 0 40.64 10.16" xmlns="http://www.w3.org/2000/svg">
 <g id="dip-32-narrow">
  <path transform="scale(.26458)" d="m0 0v14.4a4.8 4.8 0 0 1 4.8008 4.7988 4.8 4.8 0 0 1-4.8008 4.8008v14.4h153.6v-38.4zm10.961 13.605h60.359v11.188h-60.359zm71.32 0h60.357v11.188h-60.357z" stroke-width="3.7795"/>
  <path d="m38.85 6.985h1.04v2.54h-1.04zm-2.54 0h1.04v2.54h-1.04zm-2.54 0h1.04v2.54h-1.04zm-2.54 0h1.04v2.54h-1.04zm-2.54 0h1.04v2.54h-1.04zm-2.54 0h1.04v2.54h-1.04zm-2.54 0h1.04v2.54h-1.04zm-2.54 0h1.04v2.54h-1.04zm-2.54 0h1.04v2.54h-1.04zm-2.54 0h1.04v2.54h-1.04zm-2.54 0h1.04v2.54h-1.04zm-2.54 0h1.04v2.54h-1.04zm-2.54 0h1.04v2.54h-1.04zm-2.54 0h1.04v2.54h-1.04zm-2.54 0h1.04v2.54h-1.04zm-2.54 0h1.04v2.54h-1.04zm38.1-6.35h1.04v2.54h-1.04zm-2.54 0h1.04v2.54h-1.04zm-2.54 0h1.04v2.54h-1.04zm-2.54 0h1.04v2.54h-1.04zm-2.54 0h1.04v2.54h-1.04zm-2.54 0h1.04v2.54h-1.04zm-2.54 0h1.04v2.54h-1.04zm-2.54 0h1.04v2.54h-1.04zm-2.54 0h1.04v2.54h-1.04zm-2.54 0h1.04v2.54h-1.04zm-2.54 0h1.04v2.54h-1.04zm-2.54 0h1.04v2.54h-1.04zm-2.54 0h1.04v2.54h-1.04zm-2.54 0h1.04v2.54h-1.04zm-2.54 0h1.04v2.54h-1.04zm-2.54 0h1.04v2.54h-1.04z" fill="#fff"/>
 </g>
</svg>
