<?xml version="1.0" encoding="UTF-8" standalone="no"?>
<!-- Created with Inkscape (http://www.inkscape.org/) -->

<svg
   width="35.559551mm"
   height="17.779671mm"
   version="1.1"
   viewBox="0 0 35.559551 17.779671"
   id="svg6"
   sodipodi:docname="dip-28.svg"
   inkscape:version="1.1.1 (3bf5ae0d25, 2021-09-20)"
   xmlns:inkscape="http://www.inkscape.org/namespaces/inkscape"
   xmlns:sodipodi="http://sodipodi.sourceforge.net/DTD/sodipodi-0.dtd"
   xmlns="http://www.w3.org/2000/svg"
   xmlns:svg="http://www.w3.org/2000/svg">
  <defs
     id="defs10" />
  <sodipodi:namedview
     id="namedview8"
     pagecolor="#ffffff"
     bordercolor="#666666"
     borderopacity="1.0"
     inkscape:pageshadow="2"
     inkscape:pageopacity="0.0"
     inkscape:pagecheckerboard="0"
     inkscape:document-units="mm"
     showgrid="false"
     inkscape:zoom="6.4441653"
     inkscape:cx="95.745527"
     inkscape:cy="48.260711"
     inkscape:window-width="1920"
     inkscape:window-height="1127"
     inkscape:window-x="0"
     inkscape:window-y="0"
     inkscape:window-maximized="1"
     inkscape:current-layer="svg6" />
  <g
     id="dip-28">
    <path
       transform="scale(0.26458)"
       d="m 0,0 v 28.801 c 2.6508,-4.32e-4 4.8001,2.148 4.8008,4.7988 C 4.8012321,36.2514 2.6516,38.401 0,38.4006 v 28.799 H 134.4 V 6e-4 Z M 0,28.801 Z M 10.961,13.606 H 61.606 V 53.292 H 10.961 Z m 61.605,0 h 50.646 V 53.292 H 72.566 Z"
       stroke-width="3.7795"
       id="path2" />
    <path
       d="m 33.77,14.605 h 1.04 v 2.54 h -1.04 z m -2.54,0 h 1.04 v 2.54 h -1.04 z m -2.54,0 h 1.04 v 2.54 h -1.04 z m -2.54,0 h 1.04 v 2.54 h -1.04 z m -2.54,0 h 1.04 v 2.54 h -1.04 z m -2.54,0 h 1.04 v 2.54 h -1.04 z m -2.54,0 h 1.04 v 2.54 h -1.04 z m -2.54,0 h 1.04 v 2.54 h -1.04 z m -2.54,0 h 1.04 v 2.54 h -1.04 z m -2.54,0 h 1.04 v 2.54 h -1.04 z m -2.54,0 h 1.04 v 2.54 H 8.37 Z m -2.54,0 h 1.04 v 2.54 H 5.83 Z m -2.54,0 h 1.04 v 2.54 H 3.29 Z m -2.54,0 h 1.04 v 2.54 H 0.75 Z M 33.77,0.635 h 1.04 v 2.54 h -1.04 z m -2.54,0 h 1.04 v 2.54 h -1.04 z m -2.54,0 h 1.04 v 2.54 h -1.04 z m -2.54,0 h 1.04 v 2.54 h -1.04 z m -2.54,0 h 1.04 v 2.54 h -1.04 z m -2.54,0 h 1.04 v 2.54 h -1.04 z m -2.54,0 h 1.04 v 2.54 h -1.04 z m -2.54,0 h 1.04 v 2.54 h -1.04 z m -2.54,0 h 1.04 v 2.54 h -1.04 z m -2.54,0 h 1.04 v 2.54 h -1.04 z m -2.54,0 h 1.04 v 2.54 H 8.37 Z m -2.54,0 h 1.04 v 2.54 H 5.83 Z m -2.54,0 h 1.04 v 2.54 H 3.29 Z m -2.54,0 h 1.04 v 2.54 H 0.75 Z"
       fill="#ffffff"
       id="path4" />
  </g>
</svg>
