<?xml version="1.0" encoding="UTF-8"?>
<!-- Created with Inkscape (http://www.inkscape.org/) -->
<svg width="17.78mm" height="10.16mm" version="1.1" viewBox="0 0 17.78 10.16" xmlns="http://www.w3.org/2000/svg">
 <g id="dip-14-narrow">
  <path transform="scale(.26458)" d="m0 0v14.4a4.8 4.8 0 0 1 4.8008 4.7988 4.8 4.8 0 0 1-4.8008 4.8008v14.4h67.199v-38.4zm10.961 13.605h45.279v11.188h-45.279z" stroke-width="3.7795"/>
  <path d="m15.99 6.985h1.04v2.54h-1.04zm-2.54 0h1.04v2.54h-1.04zm-2.54 0h1.04v2.54h-1.04zm-2.54 0h1.04v2.54h-1.04zm-2.54 0h1.04v2.54h-1.04zm-2.54 0h1.04v2.54h-1.04zm-2.54 0h1.04v2.54h-1.04zm15.24-6.35h1.04v2.54h-1.04zm-2.54 0h1.04v2.54h-1.04zm-2.54 0h1.04v2.54h-1.04zm-2.54 0h1.04v2.54h-1.04zm-2.54 0h1.04v2.54h-1.04zm-2.54 0h1.04v2.54h-1.04zm-2.54 0h1.04v2.54h-1.04z" fill="#fff"/>
 </g>
</svg>
