<?xml version="1.0" encoding="UTF-8" standalone="no"?>
<!-- Created with Inkscape (http://www.inkscape.org/) -->

<svg
   width="40.639488mm"
   height="17.779669mm"
   version="1.1"
   viewBox="0 0 32.670961 17.779669"
   id="svg6"
   sodipodi:docname="dip-32.svg"
   inkscape:version="1.1.1 (3bf5ae0d25, 2021-09-20)"
   xmlns:inkscape="http://www.inkscape.org/namespaces/inkscape"
   xmlns:sodipodi="http://sodipodi.sourceforge.net/DTD/sodipodi-0.dtd"
   xmlns="http://www.w3.org/2000/svg"
   xmlns:svg="http://www.w3.org/2000/svg">
  <defs
     id="defs10" />
  <sodipodi:namedview
     id="namedview8"
     pagecolor="#ffffff"
     bordercolor="#666666"
     borderopacity="1.0"
     inkscape:pageshadow="2"
     inkscape:pageopacity="0.0"
     inkscape:pagecheckerboard="0"
     inkscape:document-units="mm"
     showgrid="false"
     inkscape:zoom="3.2165033"
     inkscape:cx="149.54128"
     inkscape:cy="41.349251"
     inkscape:window-width="1920"
     inkscape:window-height="1127"
     inkscape:window-x="0"
     inkscape:window-y="0"
     inkscape:window-maximized="1"
     inkscape:current-layer="svg6" />
  <g
     id="dip-32"
     transform="translate(1.0157358)">
    <path
       d="m -5.0000007,0 v 7.6201686 a 1.269984,1.269984 0 0 1 1.2696665,1.2696665 1.269984,1.269984 0 0 1 -1.2696665,1.2701959 V 17.77967 H 35.639487 V 1.58748e-4 Z m 2.8995322,3.5996109 H 13.869316 V 14.099733 H -2.1004685 Z m 18.8698455,0 H 32.739161 V 14.099733 H 16.769377 Z"
       stroke-width="0.99998"
       id="path2" />
    <path
       d="m 33.849966,14.605 h 1.04 v 2.54 h -1.04 z m -2.54,0 h 1.04 v 2.54 h -1.04 z m -2.54,0 h 1.04 v 2.54 h -1.04 z m -2.54,0 h 1.04 v 2.54 h -1.04 z m -2.54,0 h 1.04 v 2.54 h -1.04 z m -2.54,0 h 1.04 v 2.54 h -1.04 z m -2.54,0 h 1.04 v 2.54 h -1.04 z m -2.54,0 h 1.04 v 2.54 h -1.04 z m -2.54,0 h 1.04 v 2.54 h -1.04 z m -2.54,0 h 1.04 v 2.54 h -1.04 z m -2.5399995,0 h 1.04 v 2.54 h -1.04 z m -2.54,0 h 1.04 v 2.54 h -1.04 z m -2.54,0 h 1.04 v 2.54 h -1.04 z m -2.54000001,0 H 1.8699665 v 2.54 H 0.82996649 Z m -2.53999999,0 h 1.03999999 v 2.54 H -1.7100335 Z m -2.54,0 h 1.04 v 2.54 h -1.04 z M 33.849966,0.635 h 1.04 v 2.54 h -1.04 z m -2.54,0 h 1.04 v 2.54 h -1.04 z m -2.54,0 h 1.04 v 2.54 h -1.04 z m -2.54,0 h 1.04 v 2.54 h -1.04 z m -2.54,0 h 1.04 v 2.54 h -1.04 z m -2.54,0 h 1.04 v 2.54 h -1.04 z m -2.54,0 h 1.04 v 2.54 h -1.04 z m -2.54,0 h 1.04 v 2.54 h -1.04 z m -2.54,0 h 1.04 v 2.54 h -1.04 z m -2.54,0 h 1.04 v 2.54 h -1.04 z m -2.5399995,0 h 1.04 v 2.54 h -1.04 z m -2.54,0 h 1.04 v 2.54 h -1.04 z m -2.54,0 h 1.04 v 2.54 h -1.04 z m -2.54000001,0 H 1.8699665 v 2.54 H 0.82996649 Z m -2.53999999,0 h 1.03999999 v 2.54 H -1.7100335 Z m -2.54,0 h 1.04 v 2.54 h -1.04 z"
       fill="#ffffff"
       id="path4" />
  </g>
</svg>
