<?xml version="1.0" encoding="UTF-8" standalone="no"?>
<!-- Created with Inkscape (http://www.inkscape.org/) -->

<svg
   width="50.799358mm"
   height="17.779671mm"
   version="1.1"
   viewBox="0 0 50.799358 17.779671"
   id="svg6"
   sodipodi:docname="dip-40.svg"
   inkscape:version="1.1.1 (3bf5ae0d25, 2021-09-20)"
   xmlns:inkscape="http://www.inkscape.org/namespaces/inkscape"
   xmlns:sodipodi="http://sodipodi.sourceforge.net/DTD/sodipodi-0.dtd"
   xmlns="http://www.w3.org/2000/svg"
   xmlns:svg="http://www.w3.org/2000/svg">
  <defs
     id="defs10" />
  <sodipodi:namedview
     id="namedview8"
     pagecolor="#ffffff"
     bordercolor="#666666"
     borderopacity="1.0"
     inkscape:pageshadow="2"
     inkscape:pageopacity="0.0"
     inkscape:pagecheckerboard="0"
     inkscape:document-units="mm"
     showgrid="false"
     inkscape:zoom="6.4330065"
     inkscape:cx="96.377953"
     inkscape:cy="34.04318"
     inkscape:window-width="1920"
     inkscape:window-height="1127"
     inkscape:window-x="0"
     inkscape:window-y="0"
     inkscape:window-maximized="1"
     inkscape:current-layer="svg6" />
  <g
     id="dip-40">
    <path
       transform="scale(0.26458)"
       d="M 0,0 V 28.801 A 4.8,4.8 0 0 1 4.8008,33.5998 4.8,4.8 0 0 1 0,38.4006 v 28.799 H 192 V 6e-4 Z M 10.961,13.605 H 90.52 V 53.291 H 10.961 Z m 90.52,0 h 79.559 v 39.686 h -79.559 z"
       stroke-width="3.7795"
       id="path2" />
    <path
       d="m 49.01,14.605 h 1.04 v 2.54 h -1.04 z m -2.54,0 h 1.04 v 2.54 h -1.04 z m -2.54,0 h 1.04 v 2.54 h -1.04 z m -2.54,0 h 1.04 v 2.54 h -1.04 z m -2.54,0 h 1.04 v 2.54 h -1.04 z m -2.54,0 h 1.04 v 2.54 h -1.04 z m -2.54,0 h 1.04 v 2.54 h -1.04 z m -2.54,0 h 1.04 v 2.54 h -1.04 z m -2.54,0 h 1.04 v 2.54 h -1.04 z m -2.54,0 h 1.04 v 2.54 h -1.04 z m -2.54,0 h 1.04 v 2.54 h -1.04 z m -2.54,0 h 1.04 v 2.54 h -1.04 z m -2.54,0 h 1.04 v 2.54 h -1.04 z m -2.54,0 h 1.04 v 2.54 h -1.04 z m -2.54,0 h 1.04 v 2.54 h -1.04 z m -2.54,0 h 1.04 v 2.54 h -1.04 z m -2.54,0 h 1.04 v 2.54 H 8.37 Z m -2.54,0 h 1.04 v 2.54 H 5.83 Z m -2.54,0 h 1.04 v 2.54 H 3.29 Z m -2.54,0 h 1.04 v 2.54 H 0.75 Z M 49.01,0.635 h 1.04 v 2.54 h -1.04 z m -2.54,0 h 1.04 v 2.54 h -1.04 z m -2.54,0 h 1.04 v 2.54 h -1.04 z m -2.54,0 h 1.04 v 2.54 h -1.04 z m -2.54,0 h 1.04 v 2.54 h -1.04 z m -2.54,0 h 1.04 v 2.54 h -1.04 z m -2.54,0 h 1.04 v 2.54 h -1.04 z m -2.54,0 h 1.04 v 2.54 h -1.04 z m -2.54,0 h 1.04 v 2.54 h -1.04 z m -2.54,0 h 1.04 v 2.54 h -1.04 z m -2.54,0 h 1.04 v 2.54 h -1.04 z m -2.54,0 h 1.04 v 2.54 h -1.04 z m -2.54,0 h 1.04 v 2.54 h -1.04 z m -2.54,0 h 1.04 v 2.54 h -1.04 z m -2.54,0 h 1.04 v 2.54 h -1.04 z m -2.54,0 h 1.04 v 2.54 h -1.04 z m -2.54,0 h 1.04 v 2.54 H 8.37 Z m -2.54,0 h 1.04 v 2.54 H 5.83 Z m -2.54,0 h 1.04 v 2.54 H 3.29 Z m -2.54,0 h 1.04 v 2.54 H 0.75 Z"
       fill="#ffffff"
       id="path4" />
  </g>
</svg>
