<?xml version="1.0" encoding="UTF-8" standalone="no"?>
<!-- Created with Inkscape (http://www.inkscape.org/) -->

<svg
   width="41mm"
   height="11mm"
   version="1.1"
   viewBox="0 0 41 11"
   id="svg5"
   sodipodi:docname="test3.svg"
   inkscape:version="1.1 (c68e22c387, 2021-05-23)"
   xmlns:inkscape="http://www.inkscape.org/namespaces/inkscape"
   xmlns:sodipodi="http://sodipodi.sourceforge.net/DTD/sodipodi-0.dtd"
   xmlns="http://www.w3.org/2000/svg"
   xmlns:svg="http://www.w3.org/2000/svg">
  <defs
     id="defs9" />
  <sodipodi:namedview
     id="namedview7"
     pagecolor="#ffffff"
     bordercolor="#666666"
     borderopacity="1.0"
     inkscape:pageshadow="2"
     inkscape:pageopacity="0.0"
     inkscape:pagecheckerboard="0"
     inkscape:document-units="mm"
     showgrid="false"
     inkscape:zoom="0.70710678"
     inkscape:cx="614.47579"
     inkscape:cy="442.64885"
     inkscape:window-width="1920"
     inkscape:window-height="1127"
     inkscape:window-x="0"
     inkscape:window-y="0"
     inkscape:window-maximized="1"
     inkscape:current-layer="svg5" />
  <g id="dip-32-narrow">
    <rect x="0" y="0" width="40.64" height="10.16"/>
    <rect x="2.9" y="3.6" width="15.97" height="2.96" fill="#fff"/>
    <rect x="21.77" y="3.6" width="15.97" height="2.96" fill="#fff"/>
     
    <rect x="0.75" y="0.635" width="1.04" height="2.54" fill="#fff"/>
    <rect x="3.29" y="0.635" width="1.04" height="2.54" fill="#fff"/>
    <rect x="5.83" y="0.635" width="1.04" height="2.54" fill="#fff"/>
    <rect x="8.37" y="0.635" width="1.04" height="2.54" fill="#fff"/>
    <rect x="10.91" y="0.635" width="1.04" height="2.54" fill="#fff"/>
    <rect x="13.45" y="0.635" width="1.04" height="2.54" fill="#fff"/>
    <rect x="15.99" y="0.635" width="1.04" height="2.54" fill="#fff"/>
    <rect x="18.53" y="0.635" width="1.04" height="2.54" fill="#fff"/>
    <rect x="21.07" y="0.635" width="1.04" height="2.54" fill="#fff"/>
    <rect x="23.61" y="0.635" width="1.04" height="2.54" fill="#fff"/>
    <rect x="26.15" y="0.635" width="1.04" height="2.54" fill="#fff"/>
    <rect x="28.69" y="0.635" width="1.04" height="2.54" fill="#fff"/>
    <rect x="31.23" y="0.635" width="1.04" height="2.54" fill="#fff"/>
    <rect x="33.77" y="0.635" width="1.04" height="2.54" fill="#fff"/>
    <rect x="36.31" y="0.635" width="1.04" height="2.54" fill="#fff"/>
    <rect x="38.85" y="0.635" width="1.04" height="2.54" fill="#fff"/>

    
    
    <rect x="0.75" y="6.985" width="1.04" height="2.54" fill="#fff"/>
    <rect x="3.29" y="6.985" width="1.04" height="2.54" fill="#fff"/>
    <rect x="5.83" y="6.985" width="1.04" height="2.54" fill="#fff"/>
    <rect x="8.37" y="6.985" width="1.04" height="2.54" fill="#fff"/>
    <rect x="10.91" y="6.985" width="1.04" height="2.54" fill="#fff"/>
    <rect x="13.45" y="6.985" width="1.04" height="2.54" fill="#fff"/>
    <rect x="15.99" y="6.985" width="1.04" height="2.54" fill="#fff"/>
    <rect x="18.53" y="6.985" width="1.04" height="2.54" fill="#fff"/>
    <rect x="21.07" y="6.985" width="1.04" height="2.54" fill="#fff"/>
    <rect x="23.61" y="6.985" width="1.04" height="2.54" fill="#fff"/>
    <rect x="26.15" y="6.985" width="1.04" height="2.54" fill="#fff"/>
    <rect x="28.69" y="6.985" width="1.04" height="2.54" fill="#fff"/>
    <rect x="31.23" y="6.985" width="1.04" height="2.54" fill="#fff"/>
    <rect x="33.77" y="6.985" width="1.04" height="2.54" fill="#fff"/>
    <rect x="36.31" y="6.985" width="1.04" height="2.54" fill="#fff"/>
    <rect x="38.85" y="6.985" width="1.04" height="2.54" fill="#fff"/>

    <circle
       cx="0"
       cy="5.08"
       r="1.27"
       fill="#ffffff"/>

  </g>
</svg>
