<?xml version="1.0" encoding="UTF-8"?>
<!-- Created with Inkscape (http://www.inkscape.org/) -->
<svg width="25.4mm" height="10.16mm" version="1.1" viewBox="0 0 25.4 10.16" xmlns="http://www.w3.org/2000/svg">
 <g id="dip-20-narrow">
  <path transform="scale(.26458)" d="m0 0v14.4a4.8 4.8 0 0 1 4.8008 4.7988 4.8 4.8 0 0 1-4.8008 4.8008v14.4h96v-38.4zm10.961 13.605h31.559v11.188h-31.559zm42.52 0h31.559v11.188h-31.559z" stroke-width="3.7795"/>
  <path d="m23.61 6.985h1.04v2.54h-1.04zm-2.54 0h1.04v2.54h-1.04zm-2.54 0h1.04v2.54h-1.04zm-2.54 0h1.04v2.54h-1.04zm-2.54 0h1.04v2.54h-1.04zm-2.54 0h1.04v2.54h-1.04zm-2.54 0h1.04v2.54h-1.04zm-2.54 0h1.04v2.54h-1.04zm-2.54 0h1.04v2.54h-1.04zm-2.54 0h1.04v2.54h-1.04zm22.86-6.35h1.04v2.54h-1.04zm-2.54 0h1.04v2.54h-1.04zm-2.54 0h1.04v2.54h-1.04zm-2.54 0h1.04v2.54h-1.04zm-2.54 0h1.04v2.54h-1.04zm-2.54 0h1.04v2.54h-1.04zm-2.54 0h1.04v2.54h-1.04zm-2.54 0h1.04v2.54h-1.04zm-2.54 0h1.04v2.54h-1.04zm-2.54 0h1.04v2.54h-1.04z" fill="#fff"/>
 </g>
</svg>
