<?xml version="1.0" encoding="UTF-8" standalone="no"?>
<!-- Created with Inkscape (http://www.inkscape.org/) -->

<svg
   width="47mm"
   height="10mm"
   version="1.1"
   viewBox="0 0 4.7 1"
   id="svg114"
   sodipodi:docname="at-psu.svg"
   inkscape:version="1.1 (c68e22c387, 2021-05-23)"
   xmlns:inkscape="http://www.inkscape.org/namespaces/inkscape"
   xmlns:sodipodi="http://sodipodi.sourceforge.net/DTD/sodipodi-0.dtd"
   xmlns="http://www.w3.org/2000/svg"
   xmlns:svg="http://www.w3.org/2000/svg">
  <defs
     id="defs118" />
  <sodipodi:namedview
     id="namedview116"
     pagecolor="#ffffff"
     bordercolor="#666666"
     borderopacity="1.0"
     inkscape:pageshadow="2"
     inkscape:pageopacity="0.0"
     inkscape:pagecheckerboard="0"
     inkscape:document-units="mm"
     showgrid="false"
     inkscape:zoom="6.9804965"
     inkscape:cx="88.747269"
     inkscape:cy="18.90983"
     inkscape:window-width="1920"
     inkscape:window-height="1127"
     inkscape:window-x="0"
     inkscape:window-y="0"
     inkscape:window-maximized="1"
     inkscape:current-layer="svg114" />
  <g
     stroke="#000000"
     stroke-linecap="round"
     stroke-linejoin="round"
     stroke-width="0.016848px"
     id="at-psu">
    <path
       d="M 4.6922,0.00843 V 0.21061 H 4.6585 l -0.0337,0.0169 -0.01685,0.0506 0.01685,0.0506 0.0337,0.0169 H 4.6922 V 0.96902 H 0.0084 V 0.34561 L 0.0421,0.32871 0.05895,0.31181 0.09265,0.26121 0.05895,0.21061 0.0421,0.19371 H 0.0084 V 0.00837 Z"
       fill="#ffffff"
       id="path2" />
    <g
       fill="none"
       id="g10">
      <path
         d="M 4.6922,0.39595 H 4.59111 V 0.12636 H 4.6922"
         id="path4" />
      <path
         d="m 0.008425,0.39595 h 0.10109 V 0.12636 h -0.10109"
         id="path6" />
      <path
         d="M 4.6922,0.64869 H 0.0084"
         id="path8" />
    </g>
    <g
       fill="#ffffff"
       id="g34">
      <rect
         x="0.229"
         y="0.12899999"
         width="0.27000001"
         height="0.27000001"
         id="rect12" />
      <rect
         x="0.625"
         y="0.12899999"
         width="0.27000001"
         height="0.27000001"
         id="rect14" />
      <rect
         x="1.021"
         y="0.12899999"
         width="0.27000001"
         height="0.27000001"
         id="rect16" />
      <rect
         x="1.4170001"
         y="0.12899999"
         width="0.27000001"
         height="0.27000001"
         id="rect18" />
      <rect
         x="1.813"
         y="0.12899999"
         width="0.27000001"
         height="0.27000001"
         id="rect20" />
      <rect
         x="2.2090001"
         y="0.12899999"
         width="0.27000001"
         height="0.27000001"
         id="rect22" />
      <rect
         x="2.605"
         y="0.12899999"
         width="0.27000001"
         height="0.27000001"
         id="rect24" />
      <rect
         x="3.0009999"
         y="0.12899999"
         width="0.27000001"
         height="0.27000001"
         id="rect26" />
      <rect
         x="3.3970001"
         y="0.12899999"
         width="0.27000001"
         height="0.27000001"
         id="rect28" />
      <rect
         x="3.793"
         y="0.12899999"
         width="0.27000001"
         height="0.27000001"
         id="rect30" />
      <rect
         x="4.1890001"
         y="0.12899999"
         width="0.27000001"
         height="0.27000001"
         id="rect32" />
    </g>
    <g
       id="g60">
      <rect
         x="0.127"
         y="0.47999999"
         width="0.25299999"
         height="0.067000002"
         id="rect36" />
      <rect
         x="0.50700003"
         y="0.47999999"
         width="0.25299999"
         height="0.067000002"
         id="rect38" />
      <rect
         x="0.88700002"
         y="0.47999999"
         width="0.25299999"
         height="0.067000002"
         id="rect40" />
      <rect
         x="1.266"
         y="0.47999999"
         width="0.25299999"
         height="0.067000002"
         id="rect42" />
      <rect
         x="1.646"
         y="0.47999999"
         width="0.25299999"
         height="0.067000002"
         id="rect44" />
      <rect
         x="2.026"
         y="0.47999999"
         width="0.25299999"
         height="0.067000002"
         id="rect46" />
      <rect
         x="2.4059999"
         y="0.47999999"
         width="0.25299999"
         height="0.067000002"
         id="rect48" />
      <rect
         x="2.7850001"
         y="0.47999999"
         width="0.25299999"
         height="0.067000002"
         id="rect50" />
      <rect
         x="3.165"
         y="0.47999999"
         width="0.25299999"
         height="0.067000002"
         id="rect52" />
      <rect
         x="3.5450001"
         y="0.47999999"
         width="0.25299999"
         height="0.067000002"
         id="rect54" />
      <rect
         x="3.925"
         y="0.47999999"
         width="0.25299999"
         height="0.067000002"
         id="rect56" />
      <rect
         x="4.3039999"
         y="0.47999999"
         width="0.25299999"
         height="0.067000002"
         id="rect58" />
    </g>
    <rect
       x="0.19024999"
       y="0.64819998"
       width="0.118"
       height="0.185"
       id="rect62" />
    <rect
       x="0.57001001"
       y="0.64819998"
       width="0.118"
       height="0.185"
       id="rect64" />
    <rect
       x="0.94977999"
       y="0.64819998"
       width="0.118"
       height="0.185"
       id="rect66" />
    <rect
       x="1.3296"
       y="0.64819998"
       width="0.118"
       height="0.185"
       id="rect68" />
    <rect
       x="1.7093"
       y="0.64819998"
       width="0.118"
       height="0.185"
       id="rect70" />
    <rect
       x="2.0890999"
       y="0.64819998"
       width="0.118"
       height="0.185"
       id="rect72" />
    <rect
       x="2.4689"
       y="0.64819998"
       width="0.118"
       height="0.185"
       id="rect74" />
    <rect
       x="2.8485999"
       y="0.64819998"
       width="0.118"
       height="0.185"
       id="rect76" />
    <rect
       x="3.2284"
       y="0.64819998"
       width="0.118"
       height="0.185"
       id="rect78" />
    <rect
       x="3.6082001"
       y="0.64819998"
       width="0.118"
       height="0.185"
       id="rect80" />
    <rect
       x="3.9879"
       y="0.64819998"
       width="0.118"
       height="0.185"
       id="rect82" />
    <rect
       x="4.3677001"
       y="0.64819998"
       width="0.118"
       height="0.185"
       id="rect84" />
    <g
       fill="#ffffff"
       id="g110">
      <rect
         x="0.127"
         y="0.74940002"
         width="0.25299999"
         height="0.067000002"
         id="rect86" />
      <rect
         x="0.50700003"
         y="0.74940002"
         width="0.25299999"
         height="0.067000002"
         id="rect88" />
      <rect
         x="0.88700002"
         y="0.74940002"
         width="0.25299999"
         height="0.067000002"
         id="rect90" />
      <rect
         x="1.266"
         y="0.74940002"
         width="0.25299999"
         height="0.067000002"
         id="rect92" />
      <rect
         x="1.646"
         y="0.74940002"
         width="0.25299999"
         height="0.067000002"
         id="rect94" />
      <rect
         x="2.026"
         y="0.74940002"
         width="0.25299999"
         height="0.067000002"
         id="rect96" />
      <rect
         x="2.4059999"
         y="0.74940002"
         width="0.25299999"
         height="0.067000002"
         id="rect98" />
      <rect
         x="2.7850001"
         y="0.74940002"
         width="0.25299999"
         height="0.067000002"
         id="rect100" />
      <rect
         x="3.165"
         y="0.74940002"
         width="0.25299999"
         height="0.067000002"
         id="rect102" />
      <rect
         x="3.5450001"
         y="0.74940002"
         width="0.25299999"
         height="0.067000002"
         id="rect104" />
      <rect
         x="3.925"
         y="0.74940002"
         width="0.25299999"
         height="0.067000002"
         id="rect106" />
      <rect
         x="4.3039999"
         y="0.74940002"
         width="0.25299999"
         height="0.067000002"
         id="rect108" />
    </g>
  </g>
</svg>
