<?xml version="1.0" encoding="UTF-8" standalone="no"?>
<!-- Created with Inkscape (http://www.inkscape.org/) -->

<svg
   width="100.22mm"
   height="18.17mm"
   version="1.1"
   viewBox="0 0 47.75 8.89"
   id="svg42"
   sodipodi:docname="simm-30.svg"
   inkscape:version="1.1 (c68e22c387, 2021-05-23)"
   xmlns:inkscape="http://www.inkscape.org/namespaces/inkscape"
   xmlns:sodipodi="http://sodipodi.sourceforge.net/DTD/sodipodi-0.dtd"
   xmlns="http://www.w3.org/2000/svg"
   xmlns:svg="http://www.w3.org/2000/svg">
  <defs
     id="defs46" />
  <sodipodi:namedview
     id="namedview44"
     pagecolor="#ffffff"
     bordercolor="#666666"
     borderopacity="1.0"
     inkscape:pageshadow="2"
     inkscape:pageopacity="0.0"
     inkscape:pagecheckerboard="0"
     inkscape:document-units="mm"
     showgrid="false"
     inkscape:zoom="3.2736313"
     inkscape:cx="189.23939"
     inkscape:cy="34.212772"
     inkscape:window-width="1920"
     inkscape:window-height="1127"
     inkscape:window-x="0"
     inkscape:window-y="0"
     inkscape:window-maximized="1"
     inkscape:current-layer="svg42" />
  <g
     stroke="#000000"
     stroke-linecap="round"
     stroke-linejoin="round"
     stroke-width="0.085"
     style="paint-order:normal"
     id="simm-30">
    <g
       stroke-width="0.085"
       id="g38">
      <path
         d="m 0.043767,0.043095 v 8.8057 h 47.666 v -8.8057 z m 1.1855,3.7254 h 3.0479 v 1.355 h -3.0479 z m 3.8096,0 h 6.2653 v 1.355 h -6.2653 z m 7.705,0 h 6.2653 v 1.355 h -6.2653 z m 7.7039,0 h 6.2647 v 1.355 h -6.2647 z m 8.1282,0 h 6.2653 v 1.355 h -6.2653 z m 7.3649,0 h 6.2652 v 1.355 h -6.2652 z m 7.1117,0 h 2.9636 v 1.355 h -2.9636 z"
         fill="#ffffff"
         fill-rule="evenodd"
         stroke="#000000"
         stroke-linecap="round"
         stroke-linejoin="round"
         style="paint-order:normal"
         id="path2" />
      <path
         d="M 45.254,6.4781 V 8.4254 H 43.3067 V 6.4781 h 0.50798 v -1.016 h 1.6086 v 0.84667 h -0.67731 v 0.59267 h -0.9313 V 6.47811 6.90144 h 0.9313 V 6.47811 Z"
         fill="#ffffff"
         style="paint-order:normal"
         id="path4" />
      <g
         style="paint-order:normal"
         id="g14">
        <path
           d="M 2.1602,5.3774 H 1.82155 V 8.5947 H 2.1602 Z"
           style="paint-order:normal"
           id="path6" />
        <path
           d="M 45.762,5.4621 H 45.42335 V 8.6794 H 45.762 Z"
           style="paint-order:normal"
           id="path8" />
        <path
           d="M 1.5675,6.7321 V 5.3774 H 1.82149 V 8.2561 H 2.07548 L 1.5675,8.7641 V 8.17143 H 0.0436 v -1.4393 h 1.5239 v 1.4393 z"
           fill="#fafafa"
           style="paint-order:normal"
           id="path10" />
        <path
           d="M 2.1602,0.21274 H 1.82155 v 3.2173 H 2.1602 Z"
           style="paint-order:normal"
           id="path12" />
      </g>
      <g
         fill="#ffffff"
         id="g26">
        <path
           d="m 41.19,5.6314 h -0.16932 v 1.1007 h 0.08466 V 6.90143 H 40.68202 V 6.7321 h 0.16933 V 5.6314 H 40.68202 V 8.3407 H 40.5127 V 5.6314 H 40.34337 V 6.7321 H 40.5127 V 6.90143 H 40.08938 V 6.7321 h 0.16933 V 5.6314 h -0.50798 v 1.1007 h 0.08466 V 6.90143 H 39.49674 V 6.7321 H 39.5814 V 5.6314 H 39.41207 V 8.3407 H 39.32741 V 5.6314 h -0.16933 v 1.1007 h 0.08466 V 6.90143 H 38.90409 V 6.7321 h 0.08466 V 5.6314 h -0.42332 v 1.1007 h 0.08466 v 0.16933 h -0.4233 V 6.7321 h 0.16932 V 5.6314 H 38.22679 V 8.3407 H 38.05746 V 5.6314 h -0.16933 v 1.1007 h 0.16933 V 6.90143 H 37.63414 V 6.7321 h 0.16933 V 5.6314 h -0.50798 v 1.1007 h 0.08466 V 6.90143 H 37.0415 V 6.7321 h 0.08466 V 5.6314 H 36.95683 V 8.3407 H 36.87217 V 5.6314 H 36.70284 V 6.7321 H 36.7875 V 6.90143 H 36.44884 V 6.7321 H 36.5335 V 5.6314 h -0.50798 v 1.1007 h 0.08466 V 6.90143 H 35.77153 V 6.7321 h 0.16933 V 5.6314 H 35.77153 V 8.3407 H 35.60221 V 5.6314 h -0.16933 v 1.1007 h 0.08466 V 6.90143 H 35.17889 V 6.7321 h 0.08466 V 5.6314 h -0.50798 v 1.1007 h 0.16932 V 6.90143 H 34.50157 V 6.7321 H 34.6709 V 5.6314 H 34.50157 V 8.3407 H 34.33224 V 5.6314 h -0.16933 v 1.1007 h 0.16933 V 6.90143 H 33.90892 V 6.7321 h 0.08466 V 5.6314 h -0.42329 v 1.1007 h 0.08466 V 6.90143 H 33.3163 V 6.7321 h 0.08466 V 5.6314 H 33.3163 V 8.3407 H 33.14697 V 5.6314 h -0.16932 v 1.1007 h 0.08466 V 6.90143 H 32.72366 V 6.7321 h 0.08466 V 5.6314 h -0.50798 v 1.1007 h 0.16933 V 6.90143 H 32.13102 V 6.7321 h 0.08466 V 5.6314 H 32.04635 V 8.3407 H 31.87702 V 5.6314 h -0.16933 v 1.1007 h 0.16933 V 6.90143 H 31.4537 V 6.7321 h 0.16933 V 5.6314 h -0.50797 v 1.1007 h 0.08466 V 6.90143 H 30.7764 V 6.7321 h 0.16933 V 5.6314 H 30.7764 V 8.3407 H 30.60708 V 5.6314 h -0.16933 v 1.1007 h 0.16933 V 6.90143 H 30.18376 V 6.7321 h 0.16932 V 5.6314 h -0.59264 v 1.1007 h 0.16933 V 6.90143 H 29.59112 V 6.7321 h 0.08466 V 5.6314 H 29.50646 V 8.3407 H 29.33713 V 5.6314 H 29.1678 v 1.1007 h 0.16933 V 6.90143 H 28.91381 V 6.7321 h 0.16933 V 5.6314 h -0.50798 v 1.1007 h 0.08466 V 6.90143 H 28.32117 V 6.7321 h 0.08466 V 5.6314 H 28.32117 V 8.3407 H 28.15185 V 5.6314 h -0.16932 v 1.1007 h 0.08466 V 6.90143 H 27.72854 V 6.7321 H 27.8132 V 5.6314 h -0.42332 v 1.1007 h 0.08466 V 6.90143 H 27.1359 V 6.7321 h 0.08466 V 5.6314 H 27.05123 V 8.3407 H 26.8819 V 5.6314 H 26.71258 V 6.7321 H 26.8819 V 6.90143 H 26.54325 V 6.7321 h 0.08466 V 5.6314 h -0.50798 v 1.1007 h 0.16933 V 6.90143 H 25.86594 V 6.7321 h 0.16933 V 5.6314 H 25.86594 V 8.3407 H 25.69661 V 5.6314 h -0.16933 v 1.1007 h 0.16933 V 6.90143 H 25.27329 V 6.7321 h 0.08466 V 5.6314 h -0.42332 v 1.1007 h 0.08466 V 6.90143 H 24.68063 V 6.7321 h 0.08466 V 5.6314 H 24.59597 V 8.3407 H 24.42666 V 5.6314 H 24.25734 V 6.7321 H 24.342 V 6.90143 H 24.00335 V 6.7321 h 0.08466 V 5.6314 h -0.50798 v 1.1007 h 0.16933 V 6.90143 H 23.32604 V 6.7321 H 23.4107 V 5.6314 H 23.32604 V 8.3407 H 23.15671 V 5.6314 h -0.16933 v 1.1007 h 0.16933 V 6.90143 H 22.73339 V 6.7321 h 0.08466 V 5.6314 h -0.42332 v 1.1007 h 0.08466 V 6.90143 H 22.14074 V 6.7321 H 22.2254 V 5.6314 h -0.16933 v 2.794 h -0.08466 v -2.794 h -0.16933 v 1.1007 h 0.08466 V 6.90143 H 21.54809 V 6.7321 h 0.08466 V 5.6314 h -0.4233 v 1.1007 h 0.08466 V 6.90143 H 20.87079 V 6.7321 h 0.16933 V 5.6314 h -0.16933 v 2.794 h -0.16932 v -2.794 h -0.16933 v 1.1007 h 0.16933 V 6.90143 H 20.27815 V 6.7321 h 0.16932 V 5.6314 h -0.50798 v 1.1007 h 0.08466 V 6.90143 H 19.68549 V 6.7321 h 0.08466 V 5.6314 H 19.60082 V 8.3407 H 19.43149 V 5.6314 h -0.08466 v 1.1007 h 0.08466 V 6.90143 H 19.00818 V 6.7321 h 0.16933 V 5.6314 h -0.50798 v 1.1007 h 0.08466 V 6.90143 H 18.41554 V 6.7321 H 18.5002 V 5.6314 H 18.33087 V 8.3407 H 18.16154 V 5.6314 h -0.16933 v 1.1007 h 0.08466 V 6.90143 H 17.73823 V 6.7321 h 0.08466 V 5.6314 h -0.42332 v 1.1007 h 0.08466 V 6.90143 H 17.06092 V 6.7321 h 0.16933 V 5.6314 H 17.06092 V 8.3407 H 16.8916 V 5.6314 H 16.72227 V 6.7321 H 16.8916 V 6.90143 H 16.46828 V 6.7321 H 16.6376 V 5.6314 h -0.50798 v 1.1007 h 0.08466 V 6.90143 H 15.87562 V 6.7321 h 0.08466 V 5.6314 H 15.79096 V 8.3407 H 15.7063 V 5.6314 h -0.16933 v 1.1007 h 0.08466 V 6.90143 H 15.28298 V 6.7321 h 0.08466 V 5.6314 h -0.42332 v 1.1007 h 0.08466 V 6.90143 H 14.69033 V 6.7321 h 0.08466 V 5.6314 H 14.60566 V 8.3407 H 14.43633 V 5.6314 h -0.16932 v 1.1007 h 0.16932 V 6.90143 H 14.01301 V 6.7321 h 0.16933 V 5.6314 h -0.59265 v 1.1007 h 0.08467 V 6.90143 H 13.33572 V 6.7321 h 0.08466 V 5.6314 H 13.25105 V 8.3407 H 13.16639 V 5.6314 h -0.16933 v 1.1007 h 0.08466 V 6.90143 H 12.74307 V 6.7321 h 0.08466 V 5.6314 h -0.59264 v 1.1007 h 0.16933 V 6.90143 H 11.9811 V 6.7321 h 0.16933 V 5.6314 H 11.9811 V 8.3407 H 11.81178 V 5.6314 h -0.16933 v 1.1007 h 0.08466 V 6.90143 H 11.38846 V 6.7321 h 0.08466 V 5.6314 H 11.0498 v 1.1007 h 0.08466 V 6.90143 H 10.79581 V 6.7321 h 0.08466 V 5.6314 H 10.71115 V 8.3407 H 10.54182 V 5.6314 h -0.08466 v 1.1007 h 0.08466 V 6.90143 H 10.20317 V 6.7321 h 0.08466 V 5.6314 H 9.77985 V 6.7321 H 9.94918 V 6.90143 H 9.61054 V 6.7321 H 9.6952 V 5.6314 H 9.52587 V 8.3407 H 9.35654 V 5.6314 H 9.18721 V 6.7321 H 9.35654 V 6.90143 H 8.93322 V 6.7321 H 9.10254 V 5.6314 H 8.59456 V 6.7321 H 8.76389 V 6.90143 H 8.34057 V 6.7321 H 8.42523 V 5.6314 H 8.2559 V 8.3407 H 8.17124 V 5.6314 H 8.00191 V 6.7321 H 8.08657 V 6.90143 H 7.74792 V 6.7321 H 7.83258 V 5.6314 H 7.3246 V 6.7321 H 7.49392 V 6.90143 H 7.0706 V 6.7321 H 7.23993 V 5.6314 H 7.0706 V 8.3407 H 6.90129 V 5.6314 H 6.73196 V 6.7321 H 6.81662 V 6.90143 H 6.47797 V 6.7321 H 6.56263 V 5.6314 H 6.13931 V 6.7321 H 6.22397 V 6.90143 H 5.88532 V 6.7321 H 5.96998 V 5.6314 H 5.80065 V 8.3407 H 5.63132 V 5.6314 H 5.462 V 6.7321 H 5.63132 V 6.90143 H 5.37733 v 1.3547 H 5.63132 V 8.42546 H 5.88531 V 8.25613 H 6.22396 V 8.42546 H 6.47795 V 8.25613 H 6.8166 V 8.42546 H 7.07059 V 8.25613 H 7.49391 V 8.42546 H 7.66325 V 8.25613 H 8.08657 V 8.42546 H 8.34056 V 8.25613 H 8.76388 V 8.42546 H 8.93321 V 8.25613 H 9.35653 V 8.42546 H 9.52586 V 8.25613 h 0.42332 v 0.16933 h 0.25399 V 8.25613 h 0.33865 v 0.16933 h 0.25399 V 8.25613 h 0.33865 v 0.16933 h 0.25399 V 8.25613 h 0.33865 v 0.16933 h 0.25399 V 8.25613 h 0.42332 v 0.16933 h 0.33865 V 8.25613 h 0.33865 V 8.42546 H 13.3357 V 8.25613 h 0.33865 V 8.42546 H 14.013 V 8.25613 h 0.42332 v 0.16933 h 0.25399 V 8.25613 h 0.33865 v 0.16933 h 0.25399 V 8.25613 h 0.33865 v 0.16933 h 0.25399 V 8.25613 h 0.33866 v 0.16933 h 0.25399 V 8.25613 h 0.42332 v 0.16933 h 0.25399 V 8.25613 h 0.33865 v 0.16933 h 0.25399 V 8.25613 h 0.33865 v 0.16933 h 0.33865 V 8.25613 h 0.33865 v 0.16933 h 0.25399 V 8.25613 h 0.42332 v 0.16933 h 0.25399 V 8.25613 h 0.33866 v 0.16933 h 0.25399 V 8.25613 h 0.42332 v 0.16933 h 0.16932 V 8.25613 h 0.42332 v 0.16933 h 0.25399 V 8.25613 h 0.33865 v 0.16933 h 0.25399 V 8.25613 h 0.33865 v 0.16933 h 0.25399 V 8.25613 h 0.42332 v 0.16933 h 0.16933 V 8.25613 h 0.42332 v 0.16933 h 0.25399 V 8.25613 h 0.33865 v 0.16933 h 0.33865 V 8.25613 h 0.33866 v 0.16933 h 0.25399 V 8.25613 h 0.42332 v 0.16933 h 0.16933 V 8.25613 h 0.42332 v 0.16933 h 0.25399 V 8.25613 h 0.33865 v 0.16933 h 0.25399 V 8.25613 h 0.33865 v 0.16933 h 0.25399 V 8.25613 h 0.33865 v 0.16933 h 0.25399 V 8.25613 h 0.33865 v 0.16933 h 0.25399 V 8.25613 h 0.42332 v 0.16933 h 0.25399 V 8.25613 h 0.33865 V 8.42546 H 30.1837 V 8.25613 h 0.42332 v 0.16933 h 0.25399 V 8.25613 h 0.33865 v 0.16933 h 0.25399 V 8.25613 h 0.33866 v 0.16933 h 0.33865 V 8.25613 h 0.33865 V 8.42546 H 32.7236 V 8.25613 h 0.33865 v 0.16933 h 0.25399 V 8.25613 h 0.33865 v 0.16933 h 0.25399 V 8.25613 h 0.42332 v 0.16933 h 0.16933 V 8.25613 h 0.42332 v 0.16933 h 0.25399 V 8.25613 h 0.33865 v 0.16933 h 0.25399 V 8.25613 h 0.33865 v 0.16933 h 0.33865 V 8.25613 h 0.33866 v 0.16933 h 0.25399 V 8.25613 h 0.33865 v 0.16933 h 0.25399 V 8.25613 h 0.42332 v 0.16933 h 0.16933 V 8.25613 h 0.42332 v 0.16933 h 0.25399 V 8.25613 h 0.33865 v 0.16933 h 0.25399 V 8.25613 h 0.33866 v 0.16933 h 0.25399 V 8.25613 h 0.42332 v 0.16933 h 0.25399 V 8.25613 h 0.33865 v 0.16933 h 0.25399 V 8.25613 h 0.33865 v 0.16933 h 0.25399 V 8.25613 h 0.33865 V 6.90143 H 41.95191 V 6.7321 h 0.16933 V 5.6314 H 41.95191 V 8.3407 H 41.78259 V 5.6314 h -0.16933 v 1.1007 h 0.08466 V 6.90143 H 41.35927 V 6.7321 h 0.08466 V 5.6314 Z"
           style="paint-order:normal"
           id="path16" />
        <path
           d="m 41.19,0.55141 h -0.16932 v 1.1007 h 0.08466 V 1.82144 H 40.68202 V 1.65211 h 0.16933 v -1.1007 h -0.16933 v 2.794 H 40.5127 v -2.794 h -0.16933 v 1.1007 H 40.5127 V 1.82144 H 40.08938 V 1.65211 h 0.16933 v -1.1007 h -0.50798 v 1.1007 h 0.08466 V 1.82144 H 39.49674 V 1.65211 h 0.08466 v -1.1007 h -0.16933 v 2.794 h -0.08466 v -2.794 h -0.16933 v 1.1007 h 0.08466 V 1.82144 H 38.90409 V 1.65211 h 0.08466 v -1.1007 h -0.42332 v 1.1007 h 0.08466 v 0.16933 h -0.4233 V 1.65211 h 0.16932 v -1.1007 h -0.16932 v 2.794 h -0.16933 v -2.794 h -0.16933 v 1.1007 h 0.16933 V 1.82144 H 37.63414 V 1.65211 h 0.16933 v -1.1007 h -0.50798 v 1.1007 h 0.08466 V 1.82144 H 37.0415 V 1.65211 h 0.08466 v -1.1007 h -0.16933 v 2.794 h -0.08466 v -2.794 h -0.16933 v 1.1007 H 36.7875 V 1.82144 H 36.44884 V 1.65211 h 0.08466 v -1.1007 h -0.50798 v 1.1007 h 0.08466 V 1.82144 H 35.77153 V 1.65211 h 0.16933 v -1.1007 h -0.16933 v 2.794 h -0.16932 v -2.794 h -0.16933 v 1.1007 h 0.08466 V 1.82144 H 35.17889 V 1.65211 h 0.08466 v -1.1007 h -0.50798 v 1.1007 h 0.16932 V 1.82144 H 34.50157 V 1.65211 h 0.16933 v -1.1007 h -0.16933 v 2.794 h -0.16933 v -2.794 h -0.16933 v 1.1007 h 0.16933 V 1.82144 H 33.90892 V 1.65211 h 0.08466 v -1.1007 h -0.42329 v 1.1007 h 0.08466 V 1.82144 H 33.3163 V 1.65211 h 0.08466 V 0.55141 H 33.3163 v 2.794 h -0.16933 v -2.794 h -0.16932 v 1.1007 h 0.08466 V 1.82144 H 32.72366 V 1.65211 h 0.08466 v -1.1007 h -0.50798 v 1.1007 h 0.16933 V 1.82144 H 32.13102 V 1.65211 h 0.08466 v -1.1007 h -0.16933 v 2.794 h -0.16933 v -2.794 h -0.16933 v 1.1007 h 0.16933 V 1.82144 H 31.4537 V 1.65211 h 0.16933 v -1.1007 h -0.50797 v 1.1007 h 0.08466 V 1.82144 H 30.7764 V 1.65211 h 0.16933 V 0.55141 H 30.7764 v 2.794 h -0.16932 v -2.794 h -0.16933 v 1.1007 h 0.16933 V 1.82144 H 30.18376 V 1.65211 h 0.16932 v -1.1007 h -0.59264 v 1.1007 h 0.16933 V 1.82144 H 29.59112 V 1.65211 h 0.08466 v -1.1007 h -0.16932 v 2.794 h -0.16933 v -2.794 H 29.1678 v 1.1007 h 0.16933 V 1.82144 H 28.91381 V 1.65211 h 0.16933 v -1.1007 h -0.50798 v 1.1007 h 0.08466 V 1.82144 H 28.32117 V 1.65211 h 0.08466 v -1.1007 h -0.08466 v 2.794 h -0.16932 v -2.794 h -0.16932 v 1.1007 h 0.08466 V 1.82144 H 27.72854 V 1.65211 h 0.08466 v -1.1007 h -0.42332 v 1.1007 h 0.08466 V 1.82144 H 27.1359 V 1.65211 h 0.08466 v -1.1007 h -0.16933 v 2.794 H 26.8819 v -2.794 h -0.16932 v 1.1007 H 26.8819 V 1.82144 H 26.54325 V 1.65211 h 0.08466 v -1.1007 h -0.50798 v 1.1007 h 0.16933 V 1.82144 H 25.86594 V 1.65211 h 0.16933 v -1.1007 h -0.16933 v 2.794 h -0.16933 v -2.794 h -0.16933 v 1.1007 h 0.16933 V 1.82144 H 25.27329 V 1.65211 h 0.08466 v -1.1007 h -0.42332 v 1.1007 h 0.08466 V 1.82144 H 24.68063 V 1.65211 h 0.08466 v -1.1007 h -0.16932 v 2.794 h -0.16931 v -2.794 h -0.16932 v 1.1007 H 24.342 V 1.82144 H 24.00335 V 1.65211 h 0.08466 v -1.1007 h -0.50798 v 1.1007 h 0.16933 V 1.82144 H 23.32604 V 1.65211 h 0.08466 v -1.1007 h -0.08466 v 2.794 h -0.16933 v -2.794 h -0.16933 v 1.1007 h 0.16933 V 1.82144 H 22.73339 V 1.65211 h 0.08466 v -1.1007 h -0.42332 v 1.1007 h 0.08466 V 1.82144 H 22.14074 V 1.65211 h 0.08466 v -1.1007 h -0.16933 v 2.794 h -0.08466 v -2.794 h -0.16933 v 1.1007 h 0.08466 V 1.82144 H 21.54809 V 1.65211 h 0.08466 v -1.1007 h -0.4233 v 1.1007 h 0.08466 V 1.82144 H 20.87079 V 1.65211 h 0.16933 v -1.1007 h -0.16933 v 2.794 h -0.16932 v -2.794 h -0.16933 v 1.1007 h 0.16933 V 1.82144 H 20.27815 V 1.65211 h 0.16932 v -1.1007 h -0.50798 v 1.1007 h 0.08466 V 1.82144 H 19.68549 V 1.65211 h 0.08466 v -1.1007 h -0.16933 v 2.794 h -0.16933 v -2.794 h -0.08466 v 1.1007 h 0.08466 V 1.82144 H 19.00818 V 1.65211 h 0.16933 v -1.1007 h -0.50798 v 1.1007 h 0.08466 V 1.82144 H 18.41554 V 1.65211 h 0.08466 v -1.1007 h -0.16933 v 2.794 h -0.16933 v -2.794 h -0.16933 v 1.1007 h 0.08466 V 1.82144 H 17.73823 V 1.65211 h 0.08466 v -1.1007 h -0.42332 v 1.1007 h 0.08466 V 1.82144 H 17.06092 V 1.65211 h 0.16933 v -1.1007 h -0.16933 v 2.794 H 16.8916 v -2.794 h -0.16933 v 1.1007 H 16.8916 V 1.82144 H 16.46828 V 1.65211 h 0.16932 v -1.1007 h -0.50798 v 1.1007 h 0.08466 V 1.82144 H 15.87562 V 1.65211 h 0.08466 v -1.1007 h -0.16932 v 2.794 H 15.7063 v -2.794 h -0.16933 v 1.1007 h 0.08466 V 1.82144 H 15.28298 V 1.65211 h 0.08466 v -1.1007 h -0.42332 v 1.1007 h 0.08466 V 1.82144 H 14.69033 V 1.65211 h 0.08466 v -1.1007 h -0.16933 v 2.794 h -0.16933 v -2.794 h -0.16932 v 1.1007 h 0.16932 V 1.82144 H 14.01301 V 1.65211 h 0.16933 v -1.1007 h -0.59265 v 1.1007 h 0.08467 V 1.82144 H 13.33572 V 1.65211 h 0.08466 v -1.1007 h -0.16933 v 2.794 h -0.08466 v -2.794 h -0.16933 v 1.1007 h 0.08466 V 1.82144 H 12.74307 V 1.65211 h 0.08466 v -1.1007 h -0.59264 v 1.1007 h 0.16933 V 1.82144 H 11.9811 V 1.65211 h 0.16933 V 0.55141 H 11.9811 v 2.794 h -0.16933 v -2.794 h -0.16932 v 1.1007 h 0.08466 V 1.82144 H 11.38846 V 1.65211 h 0.08466 V 0.55141 H 11.0498 v 1.1007 h 0.08466 V 1.82144 H 10.79581 V 1.65211 h 0.08466 v -1.1007 h -0.16932 v 2.794 h -0.16933 v -2.794 h -0.08466 v 1.1007 h 0.08466 V 1.82144 H 10.20317 V 1.65211 h 0.08466 V 0.55141 H 9.77985 v 1.1007 H 9.94918 V 1.82144 H 9.61054 V 1.65211 H 9.6952 V 0.55141 H 9.52587 v 2.794 H 9.35654 v -2.794 H 9.18721 v 1.1007 H 9.35654 V 1.82144 H 8.93322 V 1.65211 H 9.10254 V 0.55141 H 8.59456 v 1.1007 H 8.76389 V 1.82144 H 8.34057 V 1.65211 H 8.42523 V 0.55141 H 8.2559 v 2.794 H 8.17124 v -2.794 H 8.00191 v 1.1007 H 8.08657 V 1.82144 H 7.74792 V 1.65211 H 7.83258 V 0.55141 H 7.3246 v 1.1007 H 7.49392 V 1.82144 H 7.0706 V 1.65211 H 7.23993 V 0.55141 H 7.0706 v 2.794 H 6.90129 v -2.794 H 6.73196 v 1.1007 H 6.81662 V 1.82144 H 6.47797 V 1.65211 H 6.56263 V 0.55141 H 6.13931 v 1.1007 H 6.22397 V 1.82144 H 5.88532 V 1.65211 H 5.96998 V 0.55141 H 5.80065 v 2.794 H 5.63132 v -2.794 H 5.462 v 1.1007 H 5.63132 V 1.82144 H 5.37733 v 1.4393 H 5.63132 V 3.43007 H 5.88531 V 3.26074 H 6.22396 V 3.43007 H 6.47795 V 3.26074 H 6.8166 V 3.43007 H 7.07059 V 3.26074 H 7.49391 V 3.43007 H 7.66325 V 3.26074 H 8.08657 V 3.43007 H 8.34056 V 3.26074 H 8.76388 V 3.43007 H 8.93321 V 3.26074 H 9.35653 V 3.43007 H 9.52586 V 3.26074 h 0.42332 v 0.16933 h 0.25399 V 3.26074 h 0.33865 v 0.16933 h 0.25399 V 3.26074 h 0.33865 v 0.16933 h 0.25399 V 3.26074 h 0.33865 v 0.16933 h 0.25399 V 3.26074 h 0.42332 v 0.16933 h 0.33865 V 3.26074 h 0.33865 V 3.43007 H 13.3357 V 3.26074 h 0.33865 V 3.43007 H 14.013 V 3.26074 h 0.42332 v 0.16933 h 0.25399 V 3.26074 h 0.33865 v 0.16933 h 0.25399 V 3.26074 h 0.33865 v 0.16933 h 0.25399 V 3.26074 h 0.33866 v 0.16933 h 0.25399 V 3.26074 h 0.42332 v 0.16933 h 0.25399 V 3.26074 h 0.33865 v 0.16933 h 0.25399 V 3.26074 h 0.33865 v 0.16933 h 0.33865 V 3.26074 h 0.33865 v 0.16933 h 0.25399 V 3.26074 h 0.42332 v 0.16933 h 0.25399 V 3.26074 h 0.33866 v 0.16933 h 0.25399 V 3.26074 h 0.42332 v 0.16933 h 0.16932 V 3.26074 h 0.42332 v 0.16933 h 0.25399 V 3.26074 h 0.33865 v 0.16933 h 0.25399 V 3.26074 h 0.33865 v 0.16933 h 0.25399 V 3.26074 h 0.42332 v 0.16933 h 0.16933 V 3.26074 h 0.42332 v 0.16933 h 0.25399 V 3.26074 h 0.33865 v 0.16933 h 0.33865 V 3.26074 h 0.33866 v 0.16933 h 0.25399 V 3.26074 h 0.42332 v 0.16933 h 0.16933 V 3.26074 h 0.42332 v 0.16933 h 0.25399 V 3.26074 h 0.33865 v 0.16933 h 0.25399 V 3.26074 h 0.33865 v 0.16933 h 0.25399 V 3.26074 h 0.33865 v 0.16933 h 0.25399 V 3.26074 h 0.33865 v 0.16933 h 0.25399 V 3.26074 h 0.42332 v 0.16933 h 0.25399 V 3.26074 h 0.33865 V 3.43007 H 30.1837 V 3.26074 h 0.42332 v 0.16933 h 0.25399 V 3.26074 h 0.33865 v 0.16933 h 0.25399 V 3.26074 h 0.33866 v 0.16933 h 0.33865 V 3.26074 h 0.33865 V 3.43007 H 32.7236 V 3.26074 h 0.33865 v 0.16933 h 0.25399 V 3.26074 h 0.33865 v 0.16933 h 0.25399 V 3.26074 h 0.42332 v 0.16933 h 0.16933 V 3.26074 h 0.42332 v 0.16933 h 0.25399 V 3.26074 h 0.33865 v 0.16933 h 0.25399 V 3.26074 h 0.33865 v 0.16933 h 0.33865 V 3.26074 h 0.33866 v 0.16933 h 0.25399 V 3.26074 h 0.33865 v 0.16933 h 0.25399 V 3.26074 h 0.42332 v 0.16933 h 0.16933 V 3.26074 h 0.42332 v 0.16933 h 0.25399 V 3.26074 h 0.33865 v 0.16933 h 0.25399 V 3.26074 h 0.33866 v 0.16933 h 0.25399 V 3.26074 h 0.42332 v 0.16933 h 0.25399 V 3.26074 h 0.33865 v 0.16933 h 0.25399 V 3.26074 h 0.33865 v 0.16933 h 0.25399 V 3.26074 h 0.33865 V 1.82144 H 41.95191 V 1.65211 h 0.16933 v -1.1007 h -0.16933 v 2.794 h -0.16932 v -2.794 h -0.16933 v 1.1007 h 0.08466 V 1.82144 H 41.35927 V 1.65211 h 0.08466 v -1.1007 z"
           style="paint-order:normal"
           id="path18" />
        <path
           d="M 45.254,1.3134 V 3.2607 H 43.3067 V 1.3134 h 0.50798 v -1.016 h 1.6086 v 0.84667 h -0.67731 v 0.59267 h -0.9313 V 1.31341 1.73674 h 0.9313 V 1.31341 Z"
           style="paint-order:normal"
           id="path20" />
        <path
           d="M 2.3295,6.3934 V 8.3407 H 4.2768 V 6.3934 H 3.76882 v -1.016 h -1.6086 v 0.93133 h 0.67731 v 0.508 h 0.9313 V 6.3934 6.81673 H 2.83753 V 6.3934 Z"
           style="paint-order:normal"
           id="path22" />
        <path
           d="M 2.3295,1.2287 V 3.176 H 4.2768 V 1.2287 H 3.76882 v -1.016 h -1.6086 v 0.84667 h 0.67731 v 0.59267 h 0.9313 V 1.22871 1.65204 H 2.83753 V 1.22871 Z"
           style="paint-order:normal"
           id="path24" />
      </g>
      <g
         style="paint-order:normal"
         id="g36">
        <path
           d="m 1.5675,1.4827 v -1.27 H 1.82149 V 3.0914 H 2.07548 L 1.5675,3.5994 V 3.00673 H 0.0436 v -1.524 h 1.5239 v 1.524 z"
           fill="#fafafa"
           style="paint-order:normal"
           id="path28" />
        <path
           d="m 46.016,6.7321 v -1.27 h -0.25399 v 2.794 h -0.25399 l 0.50798,0.508 v -0.508 h 1.6933 V 6.7321 H 46.016 v 1.524 z"
           fill="#fafafa"
           style="paint-order:normal"
           id="path30" />
        <path
           d="m 45.762,0.29741 h -0.33865 v 3.2173 H 45.762 Z"
           style="paint-order:normal"
           id="path32" />
        <path
           d="m 46.016,1.5674 v -1.27 h -0.25399 v 2.794 h -0.25399 l 0.50798,0.508 v -0.508 h 1.6933 V 1.5674 H 46.016 v 1.524 z"
           fill="#fafafa"
           style="paint-order:normal"
           id="path34" />
      </g>
    </g>
  </g>
</svg>
