<?xml version="1.0" encoding="UTF-8" standalone="no"?>
<!-- Created with Inkscape (http://www.inkscape.org/) -->

<svg
   width="28mm"
   height="28mm"
   version="1.1"
   viewBox="0 0 2.8 2.8"
   id="svg88"
   sodipodi:docname="pqfp-1.svg"
   inkscape:version="1.1 (c68e22c387, 2021-05-23)"
   xmlns:inkscape="http://www.inkscape.org/namespaces/inkscape"
   xmlns:sodipodi="http://sodipodi.sourceforge.net/DTD/sodipodi-0.dtd"
   xmlns="http://www.w3.org/2000/svg"
   xmlns:svg="http://www.w3.org/2000/svg">
  <defs
     id="defs92" />
  <sodipodi:namedview
     id="namedview90"
     pagecolor="#ffffff"
     bordercolor="#666666"
     borderopacity="1.0"
     inkscape:pageshadow="2"
     inkscape:pageopacity="0.0"
     inkscape:pagecheckerboard="0"
     inkscape:document-units="mm"
     showgrid="false"
     inkscape:zoom="4.9645315"
     inkscape:cx="72.010823"
     inkscape:cy="54.184368"
     inkscape:window-width="1920"
     inkscape:window-height="1127"
     inkscape:window-x="0"
     inkscape:window-y="0"
     inkscape:window-maximized="1"
     inkscape:current-layer="svg88" />
  <g
     id="pqfp-1">
    <g
       fill="#ffffff"
       stroke="#000000"
       stroke-linecap="round"
       stroke-linejoin="round"
       stroke-width="0.016933px"
       id="g82">
      <rect
         x="0.24250001"
         y="0.025"
         width="0.059250001"
         height="2.75"
         id="rect2" />
      <rect
         x="0.361"
         y="0.025"
         width="0.059250001"
         height="2.75"
         id="rect4" />
      <rect
         x="0.4795"
         y="0.025"
         width="0.059250001"
         height="2.75"
         id="rect6" />
      <rect
         x="0.59799999"
         y="0.025"
         width="0.059250001"
         height="2.75"
         id="rect8" />
      <rect
         x="0.71649998"
         y="0.025"
         width="0.059250001"
         height="2.75"
         id="rect10" />
      <rect
         x="0.83499998"
         y="0.025"
         width="0.059250001"
         height="2.75"
         id="rect12" />
      <rect
         x="0.95349997"
         y="0.025"
         width="0.059250001"
         height="2.75"
         id="rect14" />
      <rect
         x="1.072"
         y="0.025"
         width="0.059250001"
         height="2.75"
         id="rect16" />
      <rect
         x="1.1905"
         y="0.025"
         width="0.059250001"
         height="2.75"
         id="rect18" />
      <rect
         x="1.309"
         y="0.025"
         width="0.059250001"
         height="2.75"
         id="rect20" />
      <rect
         x="1.4275"
         y="0.025"
         width="0.059250001"
         height="2.75"
         id="rect22" />
      <rect
         x="1.546"
         y="0.025"
         width="0.059250001"
         height="2.75"
         id="rect24" />
      <rect
         x="1.6645"
         y="0.025"
         width="0.059250001"
         height="2.75"
         id="rect26" />
      <rect
         x="1.783"
         y="0.025"
         width="0.059250001"
         height="2.75"
         id="rect28" />
      <rect
         x="1.9015"
         y="0.025"
         width="0.059250001"
         height="2.75"
         id="rect30" />
      <rect
         x="2.02"
         y="0.025"
         width="0.059250001"
         height="2.75"
         id="rect32" />
      <rect
         x="2.1385"
         y="0.025"
         width="0.059250001"
         height="2.75"
         id="rect34" />
      <rect
         x="2.257"
         y="0.025"
         width="0.059250001"
         height="2.75"
         id="rect36" />
      <rect
         x="2.3755"
         y="0.025"
         width="0.059250001"
         height="2.75"
         id="rect38" />
      <rect
         x="2.494"
         y="0.025"
         width="0.059250001"
         height="2.75"
         id="rect40" />
      <rect
         x="0.025"
         y="0.24250001"
         width="2.75"
         height="0.059250001"
         id="rect42" />
      <rect
         x="0.025"
         y="0.361"
         width="2.75"
         height="0.059250001"
         id="rect44" />
      <rect
         x="0.025"
         y="0.4795"
         width="2.75"
         height="0.059250001"
         id="rect46" />
      <rect
         x="0.025"
         y="0.59799999"
         width="2.75"
         height="0.059250001"
         id="rect48" />
      <rect
         x="0.025"
         y="0.71649998"
         width="2.75"
         height="0.059250001"
         id="rect50" />
      <rect
         x="0.025"
         y="0.83499998"
         width="2.75"
         height="0.059250001"
         id="rect52" />
      <rect
         x="0.025"
         y="0.95349997"
         width="2.75"
         height="0.059250001"
         id="rect54" />
      <rect
         x="0.025"
         y="1.072"
         width="2.75"
         height="0.059250001"
         id="rect56" />
      <rect
         x="0.025"
         y="1.1905"
         width="2.75"
         height="0.059250001"
         id="rect58" />
      <rect
         x="0.025"
         y="1.309"
         width="2.75"
         height="0.059250001"
         id="rect60" />
      <rect
         x="0.025"
         y="1.4275"
         width="2.75"
         height="0.059250001"
         id="rect62" />
      <rect
         x="0.025"
         y="1.546"
         width="2.75"
         height="0.059250001"
         id="rect64" />
      <rect
         x="0.025"
         y="1.6645"
         width="2.75"
         height="0.059250001"
         id="rect66" />
      <rect
         x="0.025"
         y="1.783"
         width="2.75"
         height="0.059250001"
         id="rect68" />
      <rect
         x="0.025"
         y="1.9015"
         width="2.75"
         height="0.059250001"
         id="rect70" />
      <rect
         x="0.025"
         y="2.02"
         width="2.75"
         height="0.059250001"
         id="rect72" />
      <rect
         x="0.025"
         y="2.1385"
         width="2.75"
         height="0.059250001"
         id="rect74" />
      <rect
         x="0.025"
         y="2.257"
         width="2.75"
         height="0.059250001"
         id="rect76" />
      <rect
         x="0.025"
         y="2.3755"
         width="2.75"
         height="0.059250001"
         id="rect78" />
      <rect
         x="0.025"
         y="2.494"
         width="2.75"
         height="0.059250001"
         id="rect80" />
    </g>
    <rect
       x="0.13"
       y="0.13"
       width="2.54"
       height="2.54"
       stroke="#000000"
       stroke-linecap="round"
       stroke-linejoin="round"
       stroke-width="0.05px"
       id="rect84" />
    <circle
       cx="0.34999999"
       cy="0.34999999"
       r="0.12"
       fill="#ffffff"
       id="circle86" />
  </g>
</svg>
